<svg id="Layer_1" data-name="Layer 1" xmlns="http://www.w3.org/2000/svg" viewBox="0 0 269.47 167.54"><defs><style>.cls-1{fill:none;stroke:#000;stroke-miterlimit:10;stroke-width:4px;}</style></defs><title>d-d-logo2</title><path class="cls-1" d="M418.64,311.88V191.31A297.47,297.47,0,0,1,462.81,188c29.84,0,51.09,6.92,65.18,20.05a66.07,66.07,0,0,1,11.2,13.33m7.38,15.88a93.18,93.18,0,0,1,4.1,28.57c0,26.26-8.12,47.75-23.16,62.55-15,15-39.87,23.16-71.14,23.16a335.32,335.32,0,0,1-37.72-1.91V322.31m20.77,0.19v11.1c5.25,1,12.89,1.19,21,1.19,44.41,0,68.52-24.83,68.52-68.28,0.09-13.74-2.67-25.67-8.31-35.29M509.5,218.15c-10.74-8.83-26-13.71-45.73-13.71a118,118,0,0,0-24.35,2.15V312.25" transform="translate(-354.63 -185.97)"/><path class="cls-1" d="M508.92,319.66c-22.44,2.08-48.13,3.16-76.44,3.16-29.76,0-54.73-.47-75.85-1.25V217.93c18.4-.9,39.32-1.65,62-2m20.77-.19h6c60,0,102.73,4.53,131.06,13.13,28.8,8.6,45.61,20.79,45.61,37.83,0,17.2-16.32,31.27-46.57,41A247.44,247.44,0,0,1,537,316.27m8.08-16.78c21.93-7.6,33.33-18.53,33.33-32.33,0.48-24.86-42.72-40.64-131.06-40.64l-7.95,0m-20.77.39c-8,.25-14.79.6-20.25,1V311.1c10.56,0.63,25.92.78,42.25,0.78,31.75,0,58.34-2.06,79.42-6" transform="translate(-354.63 -185.97)"/><polygon class="cls-1" points="167.04 112.37 127.22 112.69 87.41 113.01 107.04 78.37 126.67 43.73 146.85 78.05 167.04 112.37"/></svg>